<svg aria-hidden="true" style="position: absolute; width: 0; height: 0; overflow: hidden;" version="1.1" xmlns="http://www.w3.org/2000/svg" xmlns:xlink="http://www.w3.org/1999/xlink">
<defs>
<symbol id="icon-close-large" viewBox="0 0 32 32">
<path d="M24.122 7.152c0.521 0.521 0.521 1.365 0 1.886l-6.599 6.599 6.599 6.601c0.521 0.521 0.521 1.365 0 1.886s-1.365 0.521-1.886 0l-6.599-6.601-6.601 6.601c-0.521 0.521-1.365 0.521-1.886 0s-0.521-1.365 0-1.886l6.601-6.601-6.601-6.599c-0.521-0.521-0.521-1.365 0-1.886s1.365-0.521 1.886 0l6.601 6.599 6.599-6.599c0.521-0.521 1.365-0.521 1.886 0z"></path>
</symbol>
<symbol id="icon-hamburger" viewBox="0 0 54 32">
<path d="M54.154 30.824h-54.154v-4.786h54.154v4.786zM54.154 18.86h-54.154v-4.786h54.154v4.786zM54.154 6.896h-54.154v-4.786h54.154v4.786z"></path>
</symbol>
<symbol id="icon-Vector-157" viewBox="0 0 31 32">
<path stroke-linejoin="miter" stroke-linecap="butt" stroke-miterlimit="4" stroke-width="2.7826" d="M1.391 29.783l27.826-27.826M29.217 1.957h-27.826M29.217 1.957v27.826"></path>
</symbol>
<symbol id="icon-Property-1Variant2-1" viewBox="0 0 32 32">
<path fill="#1d1d1d" style="fill: var(--color1, #1d1d1d)" d="M32 16c0 8.837-7.163 16-16 16s-16-7.163-16-16c0-8.837 7.163-16 16-16s16 7.163 16 16z"></path>
<path fill="none" stroke="#fff" style="stroke: var(--color2, #fff)" stroke-linejoin="miter" stroke-linecap="butt" stroke-miterlimit="4" stroke-width="0.4571" d="M31.771 16c0 8.71-7.061 15.771-15.771 15.771s-15.771-7.061-15.771-15.771c0-8.71 7.061-15.771 15.771-15.771s15.771 7.061 15.771 15.771z"></path>
<path fill="#000" style="fill: var(--color3, #000); stroke: var(--color4, #df3d3a)" stroke="#df3d3a" stroke-linejoin="miter" stroke-linecap="butt" stroke-miterlimit="4" stroke-width="0.9143" d="M27.886 16c0 6.564-5.321 11.886-11.886 11.886s-11.886-5.321-11.886-11.886c0-6.564 5.321-11.886 11.886-11.886s11.886 5.321 11.886 11.886z"></path>
</symbol>
<symbol id="icon-Property-1Variant2" viewBox="0 0 32 32">
<path fill="#cfcfcf" style="fill: var(--color5, #cfcfcf)" d="M32 16c0 8.837-7.163 16-16 16s-16-7.163-16-16c0-8.837 7.163-16 16-16s16 7.163 16 16z"></path>
<path fill="none" stroke="#fff" style="stroke: var(--color2, #fff)" stroke-linejoin="miter" stroke-linecap="butt" stroke-miterlimit="4" stroke-width="0.4571" d="M31.771 16c0 8.71-7.061 15.771-15.771 15.771s-15.771-7.061-15.771-15.771c0-8.71 7.061-15.771 15.771-15.771s15.771 7.061 15.771 15.771z"></path>
<path fill="#fcfcfc" style="fill: var(--color6, #fcfcfc); stroke: var(--color4, #df3d3a)" stroke="#df3d3a" stroke-linejoin="miter" stroke-linecap="butt" stroke-miterlimit="4" stroke-width="0.9143" d="M27.886 16c0 6.564-5.321 11.886-11.886 11.886s-11.886-5.321-11.886-11.886c0-6.564 5.321-11.886 11.886-11.886s11.886 5.321 11.886 11.886z"></path>
</symbol>
<symbol id="icon-Property-1Default-1" viewBox="0 0 32 32">
<path fill="#fff" style="fill: var(--color2, #fff)" opacity="0.8" d="M32 16c0 8.837-7.163 16-16 16s-16-7.163-16-16c0-8.837 7.163-16 16-16s16 7.163 16 16z"></path>
<path fill="none" stroke="#fff" style="stroke: var(--color2, #fff)" stroke-linejoin="miter" stroke-linecap="butt" stroke-miterlimit="4" stroke-width="0.4571" d="M31.771 16c0 8.71-7.061 15.771-15.771 15.771s-15.771-7.061-15.771-15.771c0-8.71 7.061-15.771 15.771-15.771s15.771 7.061 15.771 15.771z"></path>
<path fill="#fff" style="fill: var(--color2, #fff)" opacity="0.8" d="M28.343 16c0 6.817-5.526 12.343-12.343 12.343s-12.343-5.526-12.343-12.343c0-6.817 5.526-12.343 12.343-12.343s12.343 5.526 12.343 12.343z"></path>
</symbol>
<symbol id="icon-Property-1Default" viewBox="0 0 32 32">
<path fill="#1d1d1d" style="fill: var(--color1, #1d1d1d)" d="M32 16c0 8.837-7.163 16-16 16s-16-7.163-16-16c0-8.837 7.163-16 16-16s16 7.163 16 16z"></path>
<path fill="none" stroke="#fff" style="stroke: var(--color2, #fff)" stroke-linejoin="miter" stroke-linecap="butt" stroke-miterlimit="4" stroke-width="0.4571" d="M31.771 16c0 8.71-7.061 15.771-15.771 15.771s-15.771-7.061-15.771-15.771c0-8.71 7.061-15.771 15.771-15.771s15.771 7.061 15.771 15.771z"></path>
<path fill="#000" style="fill: var(--color3, #000)" d="M28.343 16c0 6.817-5.526 12.343-12.343 12.343s-12.343-5.526-12.343-12.343c0-6.817 5.526-12.343 12.343-12.343s12.343 5.526 12.343 12.343z"></path>
</symbol>
<symbol id="icon-youtube" viewBox="0 0 32 32">
<path d="M32 16c0 8.837-7.163 16-16 16s-16-7.163-16-16c0-8.837 7.163-16 16-16s16 7.163 16 16z"></path>
<path d="M20.845 15.887l-7.099 4.098v-8.197l7.099 4.098z"></path>
</symbol>
<symbol id="icon-grey-dot" viewBox="0 0 32 32">
<path d="M32 16c0 8.837-7.163 16-16 16s-16-7.163-16-16c0-8.837 7.163-16 16-16s16 7.163 16 16z"></path>
</symbol>
<symbol id="icon-red-dot" viewBox="0 0 32 32">
<path d="M32 16c0 8.837-7.163 16-16 16s-16-7.163-16-16c0-8.837 7.163-16 16-16s16 7.163 16 16z"></path>
</symbol>
<symbol id="icon-untitled" viewBox="0 0 44 32">
<path d="M0 15.411v-15.411h17.875v11.603c0 12.087-5.958 18.886-17.875 20.397v-6.346c3.010-0.786 5.068-1.934 6.173-3.445 1.167-1.511 1.874-3.777 2.119-6.799h-8.293z"></path>
<path d="M25.645 15.411v-15.411h17.875v11.603c0 12.087-5.958 18.886-17.875 20.397v-6.346c3.010-0.786 5.068-1.934 6.173-3.445 1.167-1.511 1.874-3.777 2.119-6.799h-8.293z"></path>
</symbol>
<symbol id="icon-bose-logo-2" viewBox="0 0 260 32">
<path d="M210.618 5.047h44.948l4.436-5.034h-64.367l-17.86 30.445h41.713l2.996-5.034h-23.852l4.554-7.671h23.852l2.878-5.034h-23.734l4.436-7.671zM176.217 12.718h-17.74l2.877-4.914c1.199-2.038 2.277-2.757 4.075-2.757s2.397 1.438 1.439 3.237h18.099l1.798-3.237c1.318-2.397 1.318-5.034-1.918-5.034h-31.884c-2.877 0-5.154 0.36-6.832 3.117l-5.634 9.589c-1.558 2.757-1.438 5.034 2.397 5.034h18.339l-2.997 5.274c-0.839 1.438-1.918 2.397-4.435 2.397-2.158 0-2.038-1.439-1.079-2.877h-17.98l-2.158 3.596c-1.318 2.277-0.24 4.315 2.877 4.315h31.644c2.877 0 5.393-1.318 6.832-3.716l5.394-8.989c1.199-2.277 0.6-5.034-3.116-5.034z"></path>
<path d="M253.222 5.934c-1.462 0-2.648 1.15-2.648 2.555 0 1.434 1.186 2.584 2.648 2.584 1.456 0 2.636-1.15 2.636-2.584 0-1.405-1.18-2.555-2.636-2.555zM253.222 10.57c-1.194 0-2.146-0.91-2.146-2.082 0-1.135 0.952-2.053 2.146-2.053 1.18 0 2.134 0.917 2.134 2.053 0 1.172-0.954 2.082-2.134 2.082zM135.343 0.013h-27.089c-3.716 0-8.51 0-11.387 5.034l-11.986 20.377c-1.678 2.757-0.24 5.034 2.877 5.034h31.524c3.237 0 5.274-0.959 7.791-5.034l11.986-20.377c1.558-2.637-0.839-5.034-3.716-5.034zM120.12 7.804l-8.99 15.223c-1.199 2.158-2.277 2.397-5.034 2.397s-3.476-0.959-2.637-2.397l9.109-15.223c1.318-2.277 2.877-2.757 5.154-2.757s3.596 0.719 2.398 2.757zM87.877 0.013h-34.761l-14.983 25.411h-33.082l-5.052 5.034h71.815c4.435 0 5.873-2.158 6.832-3.835l3.596-6.233c0.959-1.678 0.959-3.596-0.959-4.674 1.921 0 4.555-1.318 6.113-4.075l3.596-6.113c1.798-2.997-0.36-5.514-3.117-5.514zM70.017 20.509l-1.798 2.877c-0.479 0.959-1.319 2.038-3.356 2.038h-8.87l4.558-7.671h8.628c1.558 0 1.558 1.439 0.839 2.757zM77.569 7.804l-1.798 2.877c-0.48 0.959-1.318 2.038-3.356 2.038h-8.87l4.555-7.671h8.63c1.559 0 1.559 1.438 0.839 2.757z"></path>
<path d="M254.576 7.82c0-0.24-0.11-0.495-0.328-0.619-0.226-0.124-0.472-0.138-0.72-0.138h-1.29v2.875h0.438v-1.325h0.518l0.844 1.325h0.502l-0.896-1.325c0.524-0.015 0.932-0.226 0.932-0.793zM253.156 8.256h-0.48v-0.866h0.764c0.372 0 0.698 0.051 0.698 0.422 0 0.517-0.566 0.444-0.982 0.444z"></path>
</symbol>
<symbol id="icon-Union" viewBox="0 0 74 32">
<path d="M1.345 31.77c-0.42 0.113-0.869 0.083-1.345-0.096l0.131-0.347c0.414 0.156 0.783 0.175 1.117 0.085 0.336-0.091 0.654-0.296 0.956-0.614 0.61-0.642 1.134-1.717 1.602-3.117 0.832-2.485 1.464-5.909 2.13-9.514 0.083-0.448 0.166-0.899 0.25-1.351 0.76-4.079 1.597-8.263 2.844-11.427 0.623-1.583 1.355-2.925 2.24-3.873 0.889-0.953 1.941-1.515 3.193-1.515 1.13 0 2.118 0.523 2.985 1.407 0.864 0.882 1.618 2.133 2.29 3.617 1.344 2.967 2.382 6.916 3.315 10.846 0.224 0.945 0.443 1.89 0.658 2.82 0.681 2.945 1.328 5.745 2.031 7.98 0.463 1.471 0.945 2.681 1.469 3.521 0.369 0.591 0.742 0.973 1.123 1.149l0.005-0.014c0.414 0.156 0.783 0.175 1.117 0.085 0.336-0.091 0.654-0.296 0.956-0.614 0.61-0.642 1.134-1.717 1.603-3.117 0.832-2.485 1.464-5.909 2.13-9.514 0.083-0.448 0.166-0.899 0.25-1.351 0.759-4.079 1.597-8.263 2.844-11.427 0.623-1.583 1.355-2.925 2.241-3.873 0.889-0.953 1.941-1.515 3.193-1.515 1.131 0 2.116 0.523 2.979 1.408 0.861 0.882 1.609 2.133 2.275 3.617 1.332 2.968 2.355 6.916 3.273 10.847 0.22 0.944 0.435 1.886 0.645 2.814l0.001 0.003 0.001 0.003v0c0.669 2.945 1.306 5.746 2 7.981 0.457 1.471 0.934 2.681 1.455 3.521 0.367 0.591 0.738 0.972 1.118 1.149l0.006-0.015c0.414 0.156 0.785 0.175 1.125 0.085 0.341-0.091 0.666-0.297 0.977-0.616 0.627-0.643 1.174-1.719 1.67-3.118 0.885-2.494 1.585-5.935 2.32-9.554l0-0 0.003-0.014c0.087-0.43 0.175-0.863 0.264-1.297 0.835-4.079 1.748-8.263 3.052-11.427 0.652-1.582 1.407-2.924 2.309-3.872 0.905-0.952 1.966-1.513 3.218-1.513 1.13 0 2.118 0.523 2.984 1.407 0.864 0.882 1.618 2.133 2.29 3.617 1.344 2.967 2.382 6.916 3.315 10.847 0.224 0.945 0.443 1.89 0.657 2.82l0 0c0.681 2.945 1.328 5.745 2.031 7.98 0.463 1.471 0.945 2.681 1.469 3.521 0.529 0.848 1.067 1.264 1.624 1.264v0.371c-0.761 0-1.395-0.567-1.939-1.439-0.549-0.881-1.043-2.127-1.508-3.606-0.708-2.25-1.36-5.071-2.041-8.020l-0.001-0.003c-0.214-0.926-0.431-1.865-0.653-2.802-0.934-3.933-1.965-7.848-3.293-10.779-0.663-1.465-1.395-2.672-2.216-3.51-0.819-0.836-1.716-1.296-2.719-1.296-1.126 0-2.095 0.501-2.949 1.398-0.857 0.901-1.591 2.194-2.235 3.757-1.288 3.126-2.195 7.275-3.032 11.36-0.090 0.439-0.179 0.877-0.267 1.314-0.734 3.612-1.439 7.081-2.334 9.602-0.501 1.411-1.069 2.55-1.754 3.253-0.345 0.354-0.725 0.603-1.147 0.716-0.234 0.062-0.476 0.081-0.725 0.055v0.002c-0.761 0-1.393-0.567-1.934-1.439-0.546-0.881-1.035-2.128-1.494-3.606-0.699-2.25-1.34-5.071-2.010-8.020v-0c-0.211-0.927-0.424-1.867-0.643-2.806-0.918-3.933-1.935-7.849-3.25-10.78-0.658-1.465-1.385-2.672-2.203-3.51-0.815-0.835-1.71-1.296-2.713-1.296-1.126 0-2.085 0.501-2.922 1.397-0.84 0.9-1.551 2.193-2.167 3.756-1.231 3.126-2.064 7.274-2.824 11.359-0.084 0.452-0.168 0.904-0.251 1.353-0.664 3.598-1.302 7.050-2.143 9.562-0.472 1.411-1.017 2.551-1.685 3.255-0.337 0.354-0.711 0.604-1.129 0.717-0.231 0.062-0.47 0.081-0.718 0.056v0.001c-0.761 0-1.395-0.567-1.939-1.439-0.549-0.881-1.043-2.127-1.508-3.606-0.708-2.25-1.36-5.071-2.041-8.020l-0-0c-0.214-0.927-0.431-1.867-0.654-2.805-0.934-3.933-1.965-7.848-3.292-10.779-0.663-1.465-1.396-2.672-2.216-3.51-0.818-0.836-1.716-1.296-2.719-1.296-1.126 0-2.085 0.501-2.922 1.397-0.84 0.9-1.551 2.193-2.166 3.756-1.232 3.126-2.064 7.274-2.825 11.359-0.084 0.452-0.168 0.904-0.25 1.353-0.664 3.598-1.302 7.050-2.143 9.562-0.472 1.411-1.017 2.551-1.685 3.255-0.337 0.354-0.711 0.604-1.129 0.717z"></path>
</symbol>
</defs>
</svg>
